<?xml version="1.0" encoding="utf-8"?>
<!-- Generator: Adobe Illustrator 19.0.0, SVG Export Plug-In . SVG Version: 6.00 Build 0)  -->
<svg version="1.1" id="Layer_1" xmlns="http://www.w3.org/2000/svg" xmlns:xlink="http://www.w3.org/1999/xlink" x="0px" y="0px"
	 viewBox="106 93 116 116" style="enable-background:new 106 93 116 116;" xml:space="preserve">
<style type="text/css">
	.st0{fill:#21609B;}
</style>
<g>
	<g>
		<path class="st0" d="M218.8,179.1l-0.5,1.4c-8.9,17.4-24.8,28.1-47.4,28.6c-10.6,0.2-20.6-2.5-27.2-5.4
			c-14.2-6.4-26.1-18.2-32.7-30.8c-9.4-18.1-11-43.3,8.4-62.1c0.3,0-2.4,4.1-2.1,4.1l-0.5,1.7c-14,43.9,29.2,81.5,71.1,77.2
			C198,192.5,210.9,187,218.8,179.1"/>
		<path class="st0" d="M193.4,160.9c10.6,0.1,21.6-4.9,28.1-11.8c-5.7,14.5-22.3,23.8-44.5,20.9c-18.6-2.5-36.3-21.2-38.1-39.9
			c-1.3-13.6,3.4-21.8,11.2-31.6c-2.7,5.2-3.7,9.1-4,11.7C143.3,139.6,169.8,160.8,193.4,160.9"/>
		<path class="st0" d="M220.5,124.3c-1.6,3.8-11.1,10.9-15.3,11.8c-16.5,3.5-27.1-4.3-32.7-13.2c-0.8-1.3-2.3-5-2.6-5.9
			c-2.2-7.3-1.2-18.4,5.3-24.1c-1.9,5.4-2.2,11.8-1.2,15.9c0.6,2.5,2.5,6.8,4.4,9.6c3.4,5,5.6,6.2,10,8.8c2,1.2,4.1,2.1,5,2.4
			C197.5,130.7,206.3,133.9,220.5,124.3"/>
	</g>
</g>
</svg>
